<svg id="a485d068-420f-41e7-9156-290d21fda51c" data-name="Layer 1" xmlns="http://www.w3.org/2000/svg" width="9.35in" height="4.21in" viewBox="0 0 672.85 302.83"><rect x="0.75" y="0.75" width="115.85" height="301.33" fill="#b7e6ef" stroke="#10426b" stroke-linecap="round" stroke-linejoin="round" stroke-width="1.5"/><path d="M26.48,22.62c0,1.34,1,1.86,2.22,1.86.78,0,2-.22,2-1.25s-1.51-1.27-3-1.66-3-1-3-2.86c0-2.06,1.94-3.05,3.76-3.05,2.09,0,4,.92,4,3.24H30.32c-.07-1.21-.93-1.52-2-1.52-.7,0-1.52.3-1.52,1.14s.48.88,3,1.53c.73.18,3,.64,3,2.92,0,1.85-1.45,3.23-4.18,3.23-2.22,0-4.3-1.1-4.28-3.58Z" fill="#10426b"/><path d="M34.11,15.9h4.53a3.11,3.11,0,0,1,3.47,3.23c0,1.63-1,3.22-3.47,3.22H36.32V26H34.11Zm2.21,4.74H38c1,0,1.94-.23,1.94-1.51s-.91-1.51-1.94-1.51H36.32Z" fill="#10426b"/><path d="M43.49,15.9H45.7V26H43.49Z" fill="#10426b"/><path d="M19.9,32.8H23l2.35,6.91h0l2.22-6.91h3.11V42.85H28.65V35.73h0l-2.47,7.12h-1.7L22,35.8h0v7.05H19.9Z" fill="#10426b"/><path d="M32.37,37.81c.11-1.87,1.79-2.43,3.42-2.43,1.45,0,3.19.32,3.19,2.07v3.78a3.58,3.58,0,0,0,.26,1.62h-2a2.72,2.72,0,0,1-.14-.7,3.33,3.33,0,0,1-2.45.9c-1.38,0-2.47-.69-2.47-2.18,0-1.65,1.23-2,2.47-2.21s2.37-.14,2.37-1-.6-1-1.3-1-1.25.31-1.32,1.1ZM37,39.29a3.92,3.92,0,0,1-1.67.42c-.61.13-1.18.34-1.18,1.07s.58.93,1.23.93A1.49,1.49,0,0,0,37,40Z" fill="#10426b"/><path d="M42.59,34.45h-2V32.8h2Zm-2,1.12h2v7.28h-2Z" fill="#10426b"/><path d="M44.16,35.57h1.9v1h0a2.59,2.59,0,0,1,2.23-1.21c2.12,0,2.66,1.19,2.66,3v4.47H49V38.74c0-1.2-.35-1.79-1.28-1.79-1.09,0-1.55.61-1.55,2.09v3.81h-2Z" fill="#10426b"/><path d="M91.81,19.28a2.17,2.17,0,0,0-2.19-1.76c-2,0-2.73,1.69-2.73,3.45s.74,3.37,2.73,3.37a2.27,2.27,0,0,0,2.28-2.25H94a4.24,4.24,0,0,1-4.41,4.11c-3.11,0-4.94-2.33-4.94-5.23s1.83-5.31,4.94-5.31A4.08,4.08,0,0,1,94,19.28Z" fill="#10426b"/><path d="M97.05,22.62c0,1.34,1,1.86,2.22,1.86.77,0,2-.22,2-1.25s-1.51-1.27-3-1.66-3-1-3-2.86c0-2.06,1.94-3.05,3.75-3.05,2.1,0,4,.92,4,3.24h-2.14c-.07-1.21-.93-1.52-2-1.52-.7,0-1.52.3-1.52,1.14s.48.88,3,1.52c.73.19,3,.65,3,2.93,0,1.85-1.45,3.23-4.17,3.23-2.23,0-4.31-1.1-4.28-3.58Z" fill="#10426b"/><path d="M106.91,20.09c.86.07,2.1-.1,2.1-1.23a1.31,1.31,0,0,0-1.4-1.31c-1,0-1.53.75-1.52,1.76H104.2a3.28,3.28,0,0,1,3.4-3.41c1.58,0,3.31,1,3.31,2.74a2,2,0,0,1-1.38,2v0a2.2,2.2,0,0,1,1.74,2.24c0,2.07-1.73,3.24-3.66,3.24A3.33,3.33,0,0,1,104,22.57h1.9c0,1.07.57,1.94,1.73,1.94a1.52,1.52,0,0,0,1.6-1.55c0-1.49-1.31-1.47-2.28-1.47Z" fill="#10426b"/><path d="M91.81,39.28a2.17,2.17,0,0,0-2.19-1.76c-2,0-2.73,1.69-2.73,3.45s.74,3.37,2.73,3.37a2.27,2.27,0,0,0,2.28-2.25H94a4.24,4.24,0,0,1-4.41,4.11c-3.11,0-4.94-2.33-4.94-5.23s1.83-5.31,4.94-5.31A4.08,4.08,0,0,1,94,39.28Z" fill="#10426b"/><path d="M97.05,42.62c0,1.34,1,1.86,2.22,1.86.77,0,2-.22,2-1.25s-1.51-1.27-3-1.66-3-1-3-2.86c0-2.06,1.94-3.05,3.75-3.05,2.1,0,4,.92,4,3.24h-2.14c-.07-1.21-.93-1.52-2-1.52-.7,0-1.52.3-1.52,1.14s.48.88,3,1.52c.73.19,3,.65,3,2.93,0,1.85-1.45,3.23-4.17,3.23-2.23,0-4.31-1.1-4.28-3.58Z" fill="#10426b"/><path d="M104.22,39.89c-.07-2.25,1.21-4,3.58-4A3.14,3.14,0,0,1,111.17,39a3.43,3.43,0,0,1-1.76,3,10.93,10.93,0,0,0-2.84,2.27h4.66V46H104c0-2.28,1.4-3.25,3.11-4.41.87-.59,2-1.2,2.07-2.41a1.42,1.42,0,0,0-1.48-1.52c-1.18,0-1.56,1.23-1.56,2.27Z" fill="#10426b"/><path d="M91.81,75.91a2.17,2.17,0,0,0-2.19-1.76c-2,0-2.73,1.69-2.73,3.45S87.63,81,89.62,81a2.27,2.27,0,0,0,2.28-2.26H94a4.24,4.24,0,0,1-4.41,4.12c-3.11,0-4.94-2.33-4.94-5.23s1.83-5.31,4.94-5.31A4.08,4.08,0,0,1,94,75.91Z" fill="#10426b"/><path d="M97.05,79.25c0,1.34,1,1.86,2.22,1.86.77,0,2-.23,2-1.26s-1.51-1.26-3-1.66-3-1-3-2.86c0-2,1.94-3,3.75-3,2.1,0,4,.92,4,3.24h-2.14c-.07-1.21-.93-1.52-2-1.52-.7,0-1.52.3-1.52,1.14s.48.87,3,1.52c.73.19,3,.65,3,2.93,0,1.85-1.45,3.23-4.17,3.23-2.23,0-4.31-1.1-4.28-3.58Z" fill="#10426b"/><path d="M109.22,82.59h-2v-6.4h-2.48v-1.5c1.4,0,2.68-.45,2.89-2h1.59Z" fill="#10426b"/><path d="M75.94,236.25c0,1.34,1,1.86,2.22,1.86.78,0,2-.23,2-1.26s-1.51-1.26-3-1.66-3-1-3-2.86c0-2.05,1.94-3,3.76-3,2.09,0,4,.92,4,3.24H79.78c-.07-1.21-.93-1.52-2-1.52-.71,0-1.52.3-1.52,1.14s.48.87,3,1.52c.73.18,3,.65,3,2.93,0,1.85-1.45,3.23-4.18,3.23-2.22,0-4.31-1.1-4.28-3.58Z" fill="#10426b"/><path d="M90.26,232.91a2.16,2.16,0,0,0-2.19-1.76c-2,0-2.73,1.69-2.73,3.45s.75,3.37,2.73,3.37a2.27,2.27,0,0,0,2.28-2.26h2.14a4.25,4.25,0,0,1-4.42,4.12c-3.11,0-4.94-2.33-4.94-5.23s1.83-5.31,4.94-5.31a4.08,4.08,0,0,1,4.33,3.62Z" fill="#10426b"/><path d="M94,229.53H96.2v8.2h4.9v1.86H94Z" fill="#10426b"/><path d="M102.34,229.53h2.21v4.17l3.92-4.17h2.76l-3.93,4,4.31,6.09h-2.77l-3-4.52-1.26,1.28v3.24h-2.21Z" fill="#10426b"/><path d="M75.5,257.53h3.11L81,264.45h0l2.22-6.92h3.11v10.06H84.26v-7.13h0l-2.46,7.13H80.06l-2.46-7.06h0v7.06H75.5Z" fill="#10426b"/><path d="M92.77,257.29c3.11,0,4.94,2.33,4.94,5.31s-1.83,5.23-4.94,5.23-4.94-2.33-4.94-5.23S89.66,257.29,92.77,257.29Zm0,8.68c2,0,2.73-1.69,2.73-3.37s-.75-3.45-2.73-3.45S90,260.84,90,262.6,90.78,266,92.77,266Z" fill="#10426b"/><path d="M100.72,264.25c0,1.34,1,1.86,2.22,1.86.78,0,2-.23,2-1.26s-1.51-1.26-3-1.66-3-1-3-2.86c0-2.05,1.94-3,3.76-3,2.09,0,4,.92,4,3.24h-2.14c-.07-1.21-.93-1.52-2-1.52-.71,0-1.52.3-1.52,1.14s.48.87,3,1.52c.74.18,3,.65,3,2.93,0,1.85-1.45,3.23-4.18,3.23-2.23,0-4.31-1.1-4.28-3.58Z" fill="#10426b"/><path d="M108.35,257.53h2.2v10.06h-2.2Z" fill="#10426b"/><path d="M75.5,279h3.11L81,286h0L83.21,279h3.11v10.06H84.26V282h0l-2.46,7.13H80.06L77.6,282h0v7.06H75.5Z" fill="#10426b"/><path d="M88.27,279h2.21v10.06H88.27Z" fill="#10426b"/><path d="M93.92,285.75c0,1.34,1,1.86,2.23,1.86.77,0,1.95-.23,1.95-1.26s-1.5-1.26-3-1.66-3-1-3-2.86c0-2.05,1.94-3,3.76-3,2.09,0,4,.92,4,3.24H97.76c-.07-1.21-.92-1.52-2-1.52-.7,0-1.52.3-1.52,1.14s.48.87,3,1.52c.73.18,3,.65,3,2.93,0,1.85-1.45,3.23-4.18,3.23-2.22,0-4.3-1.1-4.28-3.58Z" fill="#10426b"/><path d="M106.05,278.79c3.11,0,4.94,2.33,4.94,5.31s-1.83,5.23-4.94,5.23-4.94-2.33-4.94-5.23S102.94,278.79,106.05,278.79Zm0,8.68c2,0,2.73-1.69,2.73-3.37s-.74-3.45-2.73-3.45-2.73,1.69-2.73,3.45S104.07,287.47,106.05,287.47Z" fill="#10426b"/><rect x="194.75" y="61.42" width="115.85" height="114.67" fill="#fbc694" stroke="#10426b" stroke-linecap="round" stroke-linejoin="round" stroke-width="1.5"/><path d="M266.48,109.62c0,1.34,1,1.86,2.22,1.86.78,0,2-.22,2-1.25s-1.51-1.27-3-1.66-3-1-3-2.86c0-2.06,1.94-3,3.76-3,2.09,0,4,.92,4,3.24h-2.14c-.07-1.21-.93-1.52-2-1.52-.7,0-1.52.3-1.52,1.14s.48.88,3,1.52c.73.19,3,.65,3,2.93,0,1.85-1.45,3.23-4.18,3.23-2.22,0-4.3-1.1-4.28-3.58Z" fill="#10426b"/><path d="M274.11,102.9h4.53a3.11,3.11,0,0,1,3.47,3.23c0,1.63-1,3.22-3.47,3.22h-2.32V113h-2.21Zm2.21,4.74H278c1,0,1.94-.23,1.94-1.51s-.91-1.51-1.94-1.51h-1.71Z" fill="#10426b"/><path d="M283.49,102.9h2.21V113h-2.21Z" fill="#10426b"/><path d="M248,126.52c0,1.33,1,1.85,2.22,1.85.78,0,2-.22,2-1.25s-1.51-1.27-3-1.66-3-1-3-2.86c0-2.06,1.94-3,3.76-3,2.09,0,4,.91,4,3.24h-2.14c-.07-1.21-.93-1.52-2-1.52-.7,0-1.52.29-1.52,1.14s.48.87,3,1.52c.73.18,3,.65,3,2.93,0,1.84-1.45,3.22-4.18,3.22-2.22,0-4.31-1.1-4.28-3.57Z" fill="#10426b"/><path d="M262.21,129.85h-1.9v-1h0a2.59,2.59,0,0,1-2.22,1.21c-2.13,0-2.66-1.2-2.66-3v-4.48h2v4.11c0,1.2.36,1.79,1.28,1.79,1.09,0,1.55-.6,1.55-2.08v-3.82h2Z" fill="#10426b"/><path d="M263.73,119.8h2v3.66h0a2.66,2.66,0,0,1,2.29-1.08c1.45,0,3,1.16,3,3.83s-1.56,3.84-3,3.84a2.5,2.5,0,0,1-2.39-1.13h0v.93h-1.9Zm3.63,4.08c-1.18,0-1.7,1.11-1.7,2.34s.52,2.32,1.7,2.32,1.7-1.11,1.7-2.32S268.54,123.88,267.36,123.88Z" fill="#10426b"/><path d="M272.33,122.57h1.9v1h0a2.59,2.59,0,0,1,2.22-1.21c2.13,0,2.66,1.19,2.66,3v4.47h-2v-4.11c0-1.2-.35-1.79-1.28-1.79s-1.54.61-1.54,2.09v3.81h-2Z" fill="#10426b"/><path d="M284.2,122.38a3.84,3.84,0,1,1-3.75,3.84A3.57,3.57,0,0,1,284.2,122.38Zm0,6.16c1.37,0,1.78-1.16,1.78-2.32s-.41-2.34-1.78-2.34-1.76,1.17-1.76,2.34S282.85,128.54,284.2,128.54Z" fill="#10426b"/><path d="M294.46,128.92h0a2.41,2.41,0,0,1-2.21,1.13c-2.19,0-3.26-1.89-3.26-3.9s1.08-3.77,3.22-3.77a2.49,2.49,0,0,1,2.15,1.08h0V119.8h2v10h-1.9Zm-1.74-5c-1.31,0-1.76,1.13-1.76,2.33s.52,2.33,1.76,2.33,1.71-1.15,1.71-2.35S294,123.88,292.72,123.88Z" fill="#10426b"/><path d="M299.51,126.7c.06,1.27.68,1.84,1.79,1.84a1.63,1.63,0,0,0,1.57-.94h1.76a3.27,3.27,0,0,1-3.4,2.45,3.56,3.56,0,0,1-3.72-3.83,3.65,3.65,0,0,1,3.72-3.84c2.47,0,3.67,2.08,3.53,4.32Zm3.25-1.27c-.18-1-.62-1.55-1.59-1.55a1.58,1.58,0,0,0-1.66,1.55Z" fill="#10426b"/><path d="M207.1,75.91a2.16,2.16,0,0,0-2.19-1.76c-2,0-2.73,1.69-2.73,3.45s.75,3.37,2.73,3.37a2.27,2.27,0,0,0,2.28-2.26h2.14a4.25,4.25,0,0,1-4.42,4.12c-3.11,0-4.94-2.33-4.94-5.23s1.83-5.31,4.94-5.31a4.07,4.07,0,0,1,4.33,3.62Z" fill="#10426b"/><path d="M212.34,79.25c0,1.34,1,1.86,2.22,1.86.78,0,2-.23,2-1.26s-1.51-1.26-3-1.66-3-1-3-2.86c0-2,1.94-3,3.76-3,2.09,0,4,.92,4,3.24h-2.14c-.07-1.21-.93-1.52-2-1.52-.71,0-1.52.3-1.52,1.14s.48.87,3,1.52c.74.19,3,.65,3,2.93,0,1.85-1.45,3.23-4.18,3.23-2.22,0-4.31-1.1-4.28-3.58Z" fill="#10426b"/><path d="M201.91,107c0,1.34,1,1.86,2.23,1.86.77,0,2-.23,2-1.26s-1.5-1.26-3-1.66-3-1-3-2.86c0-2.05,1.94-3,3.76-3,2.1,0,4,.92,4,3.24h-2.14c-.07-1.21-.92-1.52-2-1.52-.7,0-1.52.29-1.52,1.14s.48.87,3,1.52c.73.18,3,.65,3,2.93,0,1.85-1.45,3.23-4.18,3.23-2.22,0-4.3-1.1-4.27-3.58Z" fill="#10426b"/><path d="M216.24,103.7a2.17,2.17,0,0,0-2.2-1.76c-2,0-2.73,1.69-2.73,3.45s.75,3.37,2.73,3.37a2.27,2.27,0,0,0,2.28-2.26h2.14a4.25,4.25,0,0,1-4.42,4.12c-3.11,0-4.94-2.33-4.94-5.23s1.83-5.31,4.94-5.31a4.07,4.07,0,0,1,4.33,3.62Z" fill="#10426b"/><path d="M220,100.32h2.21v8.2h4.89v1.86H220Z" fill="#10426b"/><path d="M228.31,100.32h2.21v4.17l3.92-4.17h2.76l-3.92,4,4.3,6.09h-2.77l-3-4.53-1.27,1.29v3.24h-2.21Z" fill="#10426b"/><path d="M201.91,134.54c0,1.34,1,1.86,2.23,1.86.77,0,2-.23,2-1.26s-1.5-1.26-3-1.66-3-1-3-2.86c0-2.05,1.94-3,3.76-3,2.1,0,4,.92,4,3.24h-2.14c-.07-1.21-.92-1.52-2-1.52-.7,0-1.52.29-1.52,1.14s.48.87,3,1.52c.73.18,3,.65,3,2.93,0,1.85-1.45,3.23-4.18,3.23-2.22,0-4.3-1.1-4.27-3.58Z" fill="#10426b"/><path d="M209.54,127.82h4.33c2.61,0,4.56,1.63,4.56,5,0,2.92-1.49,5.09-4.56,5.09h-4.33Zm2.21,8.2h2c1.28,0,2.5-.79,2.5-3,0-2-.7-3.32-2.9-3.32h-1.57Z" fill="#10426b"/><path d="M220,127.82h2.21v10.06H220Z" fill="#10426b"/><path d="M201.91,157.54c0,1.34,1,1.86,2.23,1.86.77,0,2-.23,2-1.26s-1.5-1.26-3-1.66-3-1-3-2.86c0-2.05,1.94-3,3.76-3,2.1,0,4,.92,4,3.24h-2.14c-.07-1.21-.92-1.52-2-1.52-.7,0-1.52.29-1.52,1.14s.48.87,3,1.52c.73.18,3,.65,3,2.93,0,1.85-1.45,3.23-4.18,3.23-2.22,0-4.3-1.1-4.27-3.58Z" fill="#10426b"/><path d="M209.54,150.82h4.33c2.61,0,4.56,1.63,4.56,5,0,2.92-1.49,5.09-4.56,5.09h-4.33Zm2.21,8.2h2c1.28,0,2.5-.79,2.5-3,0-2-.7-3.32-2.9-3.32h-1.57Z" fill="#10426b"/><path d="M224.47,150.58c3.11,0,4.94,2.32,4.94,5.31s-1.83,5.23-4.94,5.23-4.94-2.33-4.94-5.23S221.36,150.58,224.47,150.58Zm0,8.68c2,0,2.73-1.69,2.73-3.37s-.75-3.45-2.73-3.45-2.73,1.69-2.73,3.45S222.49,159.26,224.47,159.26Z" fill="#10426b"/><path d="M236.57,160h2.27L242.59,170H240.3l-.76-2.24h-3.76L235,170h-2.23Zm-.21,6.17H239l-1.26-3.69h0Z" fill="#10426b"/><path d="M243.47,160h4.33c2.6,0,4.56,1.63,4.56,5,0,2.92-1.49,5.09-4.56,5.09h-4.33Zm2.2,8.2h2c1.28,0,2.51-.79,2.51-3,0-2-.71-3.32-2.9-3.32h-1.58Z" fill="#10426b"/><path d="M261.15,168.87a3.4,3.4,0,0,1-2.76,1.38c-3.11,0-4.93-2.33-4.93-5.23s1.82-5.31,4.93-5.31a4,4,0,0,1,4.24,3.55h-2.11a2.07,2.07,0,0,0-2.13-1.69c-2,0-2.73,1.69-2.73,3.45s.75,3.37,2.73,3.37a2.19,2.19,0,0,0,2.4-2.17h-2.23v-1.65h4.22V170h-1.4Z" fill="#10426b"/><path d="M266.08,166.67c0,1.34,1,1.86,2.22,1.86.77,0,2-.23,2-1.26s-1.51-1.26-3-1.66-3-1-3-2.86c0-2.05,1.94-3,3.75-3,2.1,0,4,.92,4,3.24h-2.14c-.07-1.21-.93-1.52-2-1.52-.7,0-1.52.3-1.52,1.14s.48.87,3,1.52c.73.19,3,.65,3,2.93,0,1.85-1.45,3.23-4.17,3.23-2.23,0-4.31-1.1-4.28-3.58Z" fill="#10426b"/><path d="M278.25,170h-2v-6.4h-2.48v-1.5c1.4,0,2.68-.45,2.89-2h1.59Z" fill="#10426b"/><path d="M285,167.73h-4.17v-1.84l4.28-5.74h1.78v5.93h1.31v1.65h-1.31V170H285Zm0-5.07h-.05l-2.54,3.42H285Z" fill="#10426b"/><path d="M293.89,170h-2v-6.4h-2.48v-1.5c1.39,0,2.67-.45,2.88-2h1.59Z" fill="#10426b"/><path d="M296.72,163.94c-.07-2.26,1.21-4,3.58-4a3.14,3.14,0,0,1,3.37,3.09,3.46,3.46,0,0,1-1.75,3,10.61,10.61,0,0,0-2.85,2.27h4.66V170H296.5c0-2.28,1.41-3.26,3.11-4.41.87-.59,2.05-1.2,2.07-2.41a1.42,1.42,0,0,0-1.48-1.52c-1.18,0-1.56,1.22-1.56,2.27Z" fill="#10426b"/><rect x="376.25" y="61.42" width="115.85" height="114.67" fill="#fbc694" stroke="#10426b" stroke-linecap="round" stroke-linejoin="round" stroke-width="1.5"/><path d="M448,109.62c0,1.34,1,1.86,2.22,1.86.78,0,2-.22,2-1.25s-1.51-1.27-3-1.66-3-1-3-2.86c0-2.06,1.94-3,3.76-3,2.09,0,4,.92,4,3.24h-2.14c-.07-1.21-.93-1.52-2-1.52-.7,0-1.52.3-1.52,1.14s.48.88,3,1.52c.73.19,3,.65,3,2.93,0,1.85-1.45,3.23-4.18,3.23-2.22,0-4.3-1.1-4.28-3.58Z" fill="#10426b"/><path d="M455.61,102.9h4.53a3.11,3.11,0,0,1,3.47,3.23c0,1.63-1,3.22-3.47,3.22h-2.32V113h-2.21Zm2.21,4.74h1.71c1,0,1.94-.23,1.94-1.51s-.91-1.51-1.94-1.51h-1.71Z" fill="#10426b"/><path d="M465,102.9h2.21V113H465Z" fill="#10426b"/><path d="M429.47,126.52c0,1.33,1,1.85,2.23,1.85.77,0,1.95-.22,1.95-1.25s-1.5-1.27-3-1.66-3-1-3-2.86c0-2.06,1.94-3,3.76-3,2.09,0,4,.91,4,3.24h-2.14c-.07-1.21-.93-1.52-2-1.52-.7,0-1.52.29-1.52,1.14s.48.87,3,1.52c.73.18,3,.65,3,2.93,0,1.84-1.45,3.22-4.18,3.22-2.22,0-4.3-1.1-4.28-3.57Z" fill="#10426b"/><path d="M443.71,129.85h-1.9v-1h0a2.59,2.59,0,0,1-2.22,1.21c-2.13,0-2.66-1.2-2.66-3v-4.48h2v4.11c0,1.2.35,1.79,1.28,1.79s1.54-.6,1.54-2.08v-3.82h2Z" fill="#10426b"/><path d="M445.23,119.8h2v3.66h0a2.66,2.66,0,0,1,2.29-1.08c1.45,0,3,1.16,3,3.83s-1.56,3.84-3,3.84a2.5,2.5,0,0,1-2.39-1.13h0v.93h-1.9Zm3.63,4.08c-1.18,0-1.7,1.11-1.7,2.34s.52,2.32,1.7,2.32,1.7-1.11,1.7-2.32S450,123.88,448.86,123.88Z" fill="#10426b"/><path d="M453.83,122.57h1.9v1h0a2.59,2.59,0,0,1,2.22-1.21c2.13,0,2.66,1.19,2.66,3v4.47h-2v-4.11c0-1.2-.35-1.79-1.28-1.79s-1.54.61-1.54,2.09v3.81h-2Z" fill="#10426b"/><path d="M465.7,122.38a3.84,3.84,0,1,1-3.75,3.84A3.57,3.57,0,0,1,465.7,122.38Zm0,6.16c1.37,0,1.78-1.16,1.78-2.32s-.41-2.34-1.78-2.34-1.75,1.17-1.75,2.34S464.35,128.54,465.7,128.54Z" fill="#10426b"/><path d="M476,128.92h0a2.41,2.41,0,0,1-2.21,1.13c-2.19,0-3.26-1.89-3.26-3.9s1.08-3.77,3.22-3.77a2.49,2.49,0,0,1,2.15,1.08h0V119.8h2v10H476Zm-1.74-5c-1.31,0-1.76,1.13-1.76,2.33s.52,2.33,1.76,2.33,1.71-1.15,1.71-2.35S475.51,123.88,474.22,123.88Z" fill="#10426b"/><path d="M481,126.7c.06,1.27.68,1.84,1.79,1.84a1.66,1.66,0,0,0,1.58-.94h1.75a3.26,3.26,0,0,1-3.4,2.45,3.55,3.55,0,0,1-3.71-3.83,3.64,3.64,0,0,1,3.71-3.84c2.48,0,3.67,2.08,3.53,4.32Zm3.25-1.27c-.18-1-.62-1.55-1.59-1.55a1.58,1.58,0,0,0-1.66,1.55Z" fill="#10426b"/><path d="M429.1,71.91a2.16,2.16,0,0,0-2.19-1.76c-2,0-2.73,1.69-2.73,3.45s.75,3.37,2.73,3.37a2.27,2.27,0,0,0,2.28-2.26h2.14a4.25,4.25,0,0,1-4.42,4.12c-3.11,0-4.94-2.33-4.94-5.23s1.83-5.31,4.94-5.31a4.07,4.07,0,0,1,4.33,3.62Z" fill="#10426b"/><path d="M434.34,75.25c0,1.34,1,1.86,2.22,1.86.78,0,2-.23,2-1.26s-1.51-1.26-3-1.66-3-1-3-2.86c0-2,1.94-3,3.76-3,2.09,0,4,.92,4,3.24h-2.14c-.07-1.21-.93-1.52-2-1.52-.71,0-1.52.3-1.52,1.14s.48.87,3,1.52c.74.19,3,.65,3,2.93,0,1.85-1.45,3.23-4.18,3.23-2.22,0-4.31-1.1-4.28-3.58Z" fill="#10426b"/><path d="M383.41,107c0,1.34,1,1.86,2.23,1.86.77,0,1.95-.23,1.95-1.26s-1.5-1.26-3-1.66-3-1-3-2.86c0-2.05,1.94-3,3.76-3,2.09,0,4,.92,4,3.24h-2.14c-.07-1.21-.92-1.52-2-1.52-.7,0-1.52.29-1.52,1.14s.48.87,3,1.52c.73.18,3,.65,3,2.93,0,1.85-1.45,3.23-4.18,3.23-2.22,0-4.3-1.1-4.27-3.58Z" fill="#10426b"/><path d="M397.74,103.7a2.17,2.17,0,0,0-2.2-1.76c-2,0-2.73,1.69-2.73,3.45s.75,3.37,2.73,3.37a2.27,2.27,0,0,0,2.28-2.26H400a4.25,4.25,0,0,1-4.42,4.12c-3.11,0-4.94-2.33-4.94-5.23s1.83-5.31,4.94-5.31a4.07,4.07,0,0,1,4.33,3.62Z" fill="#10426b"/><path d="M401.47,100.32h2.21v8.2h4.89v1.86h-7.1Z" fill="#10426b"/><path d="M409.81,100.32H412v4.17l3.92-4.17h2.76l-3.92,4,4.3,6.09h-2.77l-3-4.53L412,107.14v3.24h-2.21Z" fill="#10426b"/><path d="M383.41,134.54c0,1.34,1,1.86,2.23,1.86.77,0,1.95-.23,1.95-1.26s-1.5-1.26-3-1.66-3-1-3-2.86c0-2.05,1.94-3,3.76-3,2.09,0,4,.92,4,3.24h-2.14c-.07-1.21-.92-1.52-2-1.52-.7,0-1.52.29-1.52,1.14s.48.87,3,1.52c.73.18,3,.65,3,2.93,0,1.85-1.45,3.23-4.18,3.23-2.22,0-4.3-1.1-4.27-3.58Z" fill="#10426b"/><path d="M391,127.82h4.33c2.61,0,4.56,1.63,4.56,5,0,2.92-1.49,5.09-4.56,5.09H391Zm2.21,8.2h2c1.28,0,2.5-.79,2.5-3,0-2-.7-3.32-2.9-3.32h-1.57Z" fill="#10426b"/><path d="M401.47,127.82h2.21v10.06h-2.21Z" fill="#10426b"/><path d="M383.41,157.54c0,1.34,1,1.86,2.23,1.86.77,0,1.95-.23,1.95-1.26s-1.5-1.26-3-1.66-3-1-3-2.86c0-2.05,1.94-3,3.76-3,2.09,0,4,.92,4,3.24h-2.14c-.07-1.21-.92-1.52-2-1.52-.7,0-1.52.29-1.52,1.14s.48.87,3,1.52c.73.18,3,.65,3,2.93,0,1.85-1.45,3.23-4.18,3.23-2.22,0-4.3-1.1-4.27-3.58Z" fill="#10426b"/><path d="M391,150.82h4.33c2.61,0,4.56,1.63,4.56,5,0,2.92-1.49,5.09-4.56,5.09H391Zm2.21,8.2h2c1.28,0,2.5-.79,2.5-3,0-2-.7-3.32-2.9-3.32h-1.57Z" fill="#10426b"/><path d="M406,150.58c3.11,0,4.94,2.32,4.94,5.31s-1.83,5.23-4.94,5.23-4.94-2.33-4.94-5.23S402.86,150.58,406,150.58Zm0,8.68c2,0,2.73-1.69,2.73-3.37s-.75-3.45-2.73-3.45-2.73,1.69-2.73,3.45S404,159.26,406,159.26Z" fill="#10426b"/><path d="M418.07,160h2.27L424.09,170H421.8l-.76-2.24h-3.76l-.79,2.24h-2.23Zm-.21,6.17h2.6l-1.26-3.69h0Z" fill="#10426b"/><path d="M425,160h4.33c2.6,0,4.56,1.63,4.56,5,0,2.92-1.49,5.09-4.56,5.09H425Zm2.2,8.2h2c1.28,0,2.51-.79,2.51-3,0-2-.7-3.32-2.9-3.32h-1.58Z" fill="#10426b"/><path d="M442.65,168.87a3.4,3.4,0,0,1-2.76,1.38c-3.11,0-4.93-2.33-4.93-5.23s1.82-5.31,4.93-5.31a4,4,0,0,1,4.24,3.55H442a2.06,2.06,0,0,0-2.13-1.69c-2,0-2.73,1.69-2.73,3.45s.75,3.37,2.73,3.37a2.19,2.19,0,0,0,2.4-2.17h-2.23v-1.65h4.22V170h-1.4Z" fill="#10426b"/><path d="M447.58,166.67c0,1.34,1,1.86,2.22,1.86.77,0,2-.23,2-1.26s-1.51-1.26-3-1.66-3-1-3-2.86c0-2.05,1.94-3,3.75-3,2.1,0,4,.92,4,3.24h-2.14c-.07-1.21-.93-1.52-2-1.52-.7,0-1.52.3-1.52,1.14s.48.87,3,1.52c.73.19,3,.65,3,2.93,0,1.85-1.44,3.23-4.17,3.23-2.23,0-4.31-1.1-4.28-3.58Z" fill="#10426b"/><path d="M459.75,170h-2v-6.4h-2.48v-1.5c1.4,0,2.68-.45,2.89-2h1.59Z" fill="#10426b"/><path d="M466.45,167.73h-4.17v-1.84l4.28-5.74h1.79v5.93h1.3v1.65h-1.3V170h-1.9Zm0-5.07h-.05l-2.54,3.42h2.59Z" fill="#10426b"/><path d="M475.39,170h-2v-6.4h-2.48v-1.5c1.39,0,2.67-.45,2.88-2h1.59Z" fill="#10426b"/><path d="M478.22,163.94c-.07-2.26,1.21-4,3.58-4a3.14,3.14,0,0,1,3.37,3.09,3.45,3.45,0,0,1-1.76,3,10.72,10.72,0,0,0-2.84,2.27h4.66V170H478c0-2.28,1.4-3.26,3.11-4.41.87-.59,2.05-1.2,2.07-2.41a1.42,1.42,0,0,0-1.48-1.52c-1.18,0-1.56,1.22-1.56,2.27Z" fill="#10426b"/><rect x="556.25" y="61.42" width="115.85" height="114.67" fill="#fbc694" stroke="#10426b" stroke-linecap="round" stroke-linejoin="round" stroke-width="1.5"/><path d="M628,109.62c0,1.34,1,1.86,2.22,1.86.78,0,2-.22,2-1.25s-1.51-1.27-3-1.66-3-1-3-2.86c0-2.06,1.94-3,3.76-3,2.09,0,4,.92,4,3.24h-2.14c-.07-1.21-.93-1.52-2-1.52-.7,0-1.52.3-1.52,1.14s.48.88,3,1.52c.73.19,3,.65,3,2.93,0,1.85-1.45,3.23-4.18,3.23-2.22,0-4.3-1.1-4.28-3.58Z" fill="#10426b"/><path d="M635.61,102.9h4.53a3.11,3.11,0,0,1,3.47,3.23c0,1.63-1,3.22-3.47,3.22h-2.32V113h-2.21Zm2.21,4.74h1.71c1,0,1.94-.23,1.94-1.51s-.91-1.51-1.94-1.51h-1.71Z" fill="#10426b"/><path d="M645,102.9h2.21V113H645Z" fill="#10426b"/><path d="M609.47,126.52c0,1.33,1,1.85,2.23,1.85.77,0,1.95-.22,1.95-1.25s-1.5-1.27-3-1.66-3-1-3-2.86c0-2.06,1.94-3,3.76-3,2.09,0,4,.91,4,3.24h-2.14c-.07-1.21-.93-1.52-2-1.52-.7,0-1.52.29-1.52,1.14s.48.87,3,1.52c.73.18,3,.65,3,2.93,0,1.84-1.45,3.22-4.18,3.22-2.22,0-4.3-1.1-4.28-3.57Z" fill="#10426b"/><path d="M623.71,129.85h-1.9v-1h0a2.59,2.59,0,0,1-2.22,1.21c-2.13,0-2.66-1.2-2.66-3v-4.48h2v4.11c0,1.2.35,1.79,1.28,1.79,1.08,0,1.54-.6,1.54-2.08v-3.82h2Z" fill="#10426b"/><path d="M625.23,119.8h2v3.66h0a2.66,2.66,0,0,1,2.29-1.08c1.45,0,3,1.16,3,3.83s-1.56,3.84-3,3.84a2.5,2.5,0,0,1-2.39-1.13h0v.93h-1.9Zm3.63,4.08c-1.18,0-1.7,1.11-1.7,2.34s.52,2.32,1.7,2.32,1.7-1.11,1.7-2.32S630,123.88,628.86,123.88Z" fill="#10426b"/><path d="M633.83,122.57h1.9v1h0a2.59,2.59,0,0,1,2.22-1.21c2.13,0,2.66,1.19,2.66,3v4.47h-2v-4.11c0-1.2-.35-1.79-1.28-1.79-1.08,0-1.54.61-1.54,2.09v3.81h-2Z" fill="#10426b"/><path d="M645.7,122.38a3.84,3.84,0,1,1-3.75,3.84A3.57,3.57,0,0,1,645.7,122.38Zm0,6.16c1.37,0,1.78-1.16,1.78-2.32s-.41-2.34-1.78-2.34-1.75,1.17-1.75,2.34S644.35,128.54,645.7,128.54Z" fill="#10426b"/><path d="M656,128.92h0a2.41,2.41,0,0,1-2.21,1.13c-2.19,0-3.26-1.89-3.26-3.9s1.08-3.77,3.22-3.77a2.49,2.49,0,0,1,2.15,1.08h0V119.8h2v10H656Zm-1.74-5c-1.31,0-1.76,1.13-1.76,2.33s.52,2.33,1.76,2.33,1.71-1.15,1.71-2.35S655.51,123.88,654.22,123.88Z" fill="#10426b"/><path d="M661,126.7c.06,1.27.68,1.84,1.79,1.84a1.66,1.66,0,0,0,1.58-.94h1.75a3.26,3.26,0,0,1-3.4,2.45,3.55,3.55,0,0,1-3.71-3.83,3.64,3.64,0,0,1,3.71-3.84c2.48,0,3.67,2.08,3.53,4.32Zm3.25-1.27c-.18-1-.62-1.55-1.59-1.55a1.58,1.58,0,0,0-1.66,1.55Z" fill="#10426b"/><path d="M609.1,71.91a2.16,2.16,0,0,0-2.19-1.76c-2,0-2.73,1.69-2.73,3.45s.75,3.37,2.73,3.37a2.27,2.27,0,0,0,2.28-2.26h2.14a4.25,4.25,0,0,1-4.42,4.12c-3.11,0-4.94-2.33-4.94-5.23s1.83-5.31,4.94-5.31a4.07,4.07,0,0,1,4.33,3.62Z" fill="#10426b"/><path d="M614.34,75.25c0,1.34,1,1.86,2.22,1.86.78,0,2-.23,2-1.26s-1.51-1.26-3-1.66-3-1-3-2.86c0-2,1.94-3,3.76-3,2.09,0,4,.92,4,3.24h-2.14c-.07-1.21-.93-1.52-2-1.52-.71,0-1.52.3-1.52,1.14s.48.87,3,1.52c.74.19,3,.65,3,2.93,0,1.85-1.45,3.23-4.18,3.23-2.22,0-4.31-1.1-4.28-3.58Z" fill="#10426b"/><path d="M563.41,107c0,1.34,1,1.86,2.23,1.86.77,0,2-.23,2-1.26s-1.5-1.26-3-1.66-3-1-3-2.86c0-2.05,1.94-3,3.76-3,2.09,0,4,.92,4,3.24h-2.14c-.07-1.21-.92-1.52-2-1.52-.7,0-1.52.29-1.52,1.14s.48.87,3,1.52c.73.18,3,.65,3,2.93,0,1.85-1.45,3.23-4.18,3.23-2.22,0-4.3-1.1-4.27-3.58Z" fill="#10426b"/><path d="M577.74,103.7a2.17,2.17,0,0,0-2.2-1.76c-2,0-2.73,1.69-2.73,3.45s.75,3.37,2.73,3.37a2.27,2.27,0,0,0,2.28-2.26H580a4.25,4.25,0,0,1-4.42,4.12c-3.11,0-4.94-2.33-4.94-5.23s1.83-5.31,4.94-5.31a4.07,4.07,0,0,1,4.33,3.62Z" fill="#10426b"/><path d="M581.47,100.32h2.21v8.2h4.89v1.86h-7.1Z" fill="#10426b"/><path d="M589.81,100.32H592v4.17l3.92-4.17h2.76l-3.92,4,4.3,6.09h-2.77l-3-4.53L592,107.14v3.24h-2.21Z" fill="#10426b"/><path d="M563.41,134.54c0,1.34,1,1.86,2.23,1.86.77,0,2-.23,2-1.26s-1.5-1.26-3-1.66-3-1-3-2.86c0-2.05,1.94-3,3.76-3,2.09,0,4,.92,4,3.24h-2.14c-.07-1.21-.92-1.52-2-1.52-.7,0-1.52.29-1.52,1.14s.48.87,3,1.52c.73.18,3,.65,3,2.93,0,1.85-1.45,3.23-4.18,3.23-2.22,0-4.3-1.1-4.27-3.58Z" fill="#10426b"/><path d="M571,127.82h4.33c2.61,0,4.56,1.63,4.56,5,0,2.92-1.49,5.09-4.56,5.09H571Zm2.21,8.2h2c1.28,0,2.5-.79,2.5-3,0-2-.7-3.32-2.9-3.32h-1.57Z" fill="#10426b"/><path d="M581.47,127.82h2.21v10.06h-2.21Z" fill="#10426b"/><path d="M563.41,157.54c0,1.34,1,1.86,2.23,1.86.77,0,2-.23,2-1.26s-1.5-1.26-3-1.66-3-1-3-2.86c0-2.05,1.94-3,3.76-3,2.09,0,4,.92,4,3.24h-2.14c-.07-1.21-.92-1.52-2-1.52-.7,0-1.52.29-1.52,1.14s.48.87,3,1.52c.73.18,3,.65,3,2.93,0,1.85-1.45,3.23-4.18,3.23-2.22,0-4.3-1.1-4.27-3.58Z" fill="#10426b"/><path d="M571,150.82h4.33c2.61,0,4.56,1.63,4.56,5,0,2.92-1.49,5.09-4.56,5.09H571Zm2.21,8.2h2c1.28,0,2.5-.79,2.5-3,0-2-.7-3.32-2.9-3.32h-1.57Z" fill="#10426b"/><path d="M586,150.58c3.11,0,4.94,2.32,4.94,5.31s-1.83,5.23-4.94,5.23-4.94-2.33-4.94-5.23S582.86,150.58,586,150.58Zm0,8.68c2,0,2.73-1.69,2.73-3.37s-.75-3.45-2.73-3.45-2.73,1.69-2.73,3.45S584,159.26,586,159.26Z" fill="#10426b"/><path d="M598.07,160h2.27L604.09,170H601.8l-.76-2.24h-3.76l-.79,2.24h-2.23Zm-.21,6.17h2.6l-1.26-3.69h0Z" fill="#10426b"/><path d="M605,160h4.33c2.6,0,4.56,1.63,4.56,5,0,2.92-1.49,5.09-4.56,5.09H605Zm2.2,8.2h2c1.28,0,2.51-.79,2.51-3,0-2-.7-3.32-2.9-3.32h-1.58Z" fill="#10426b"/><path d="M622.65,168.87a3.4,3.4,0,0,1-2.76,1.38c-3.11,0-4.93-2.33-4.93-5.23s1.82-5.31,4.93-5.31a4,4,0,0,1,4.24,3.55H622a2.06,2.06,0,0,0-2.13-1.69c-2,0-2.73,1.69-2.73,3.45s.75,3.37,2.73,3.37a2.19,2.19,0,0,0,2.4-2.17h-2.23v-1.65h4.22V170h-1.4Z" fill="#10426b"/><path d="M627.58,166.67c0,1.34,1,1.86,2.22,1.86.77,0,2-.23,2-1.26s-1.51-1.26-3-1.66-3-1-3-2.86c0-2.05,1.94-3,3.75-3,2.1,0,4,.92,4,3.24h-2.14c-.07-1.21-.93-1.52-2-1.52-.7,0-1.52.3-1.52,1.14s.48.87,3,1.52c.73.19,3,.65,3,2.93,0,1.85-1.44,3.23-4.17,3.23-2.23,0-4.31-1.1-4.28-3.58Z" fill="#10426b"/><path d="M639.75,170h-2v-6.4h-2.48v-1.5c1.4,0,2.68-.45,2.89-2h1.59Z" fill="#10426b"/><path d="M646.45,167.73h-4.17v-1.84l4.28-5.74h1.79v5.93h1.3v1.65h-1.3V170h-1.9Zm0-5.07h-.05l-2.54,3.42h2.59Z" fill="#10426b"/><path d="M655.39,170h-2v-6.4h-2.48v-1.5c1.39,0,2.67-.45,2.88-2h1.59Z" fill="#10426b"/><path d="M658.22,163.94c-.07-2.26,1.21-4,3.58-4a3.14,3.14,0,0,1,3.37,3.09,3.45,3.45,0,0,1-1.76,3,10.72,10.72,0,0,0-2.84,2.27h4.66V170H658c0-2.28,1.4-3.26,3.11-4.41.87-.59,2-1.2,2.07-2.41a1.42,1.42,0,0,0-1.48-1.52c-1.18,0-1.56,1.22-1.56,2.27Z" fill="#10426b"/><polyline points="116.6 20.75 614.18 20.75 614.18 55.75" fill="none" stroke="#10426b" stroke-miterlimit="10" stroke-width="1.5"/><polyline points="116.6 40.75 436.1 40.75 436.1 55.75" fill="none" stroke="#10426b" stroke-miterlimit="10" stroke-width="1.5"/><line x1="116.6" y1="78.59" x2="188.1" y2="78.59" fill="none" stroke="#10426b" stroke-miterlimit="10" stroke-width="1.5"/><polyline points="116.6 234.75 510.1 234.75 510.1 106.25 549.1 106.25" fill="none" stroke="#10426b" stroke-miterlimit="10" stroke-width="1.5"/><polyline points="116.6 263.25 524.18 263.25 524.18 134.75 549.1 134.75" fill="none" stroke="#10426b" stroke-miterlimit="10" stroke-width="1.5"/><polyline points="116.6 284.75 540.6 284.75 540.6 156.25 556.25 156.25" fill="none" stroke="#10426b" stroke-miterlimit="10" stroke-width="1.5"/><polyline points="322.1 234.75 322.1 106.25 369.6 106.25" fill="none" stroke="#10426b" stroke-miterlimit="10" stroke-width="1.5"/><polyline points="336.43 263.25 336.43 134.75 365.39 134.75" fill="none" stroke="#10426b" stroke-miterlimit="10" stroke-width="1.5"/><polyline points="353.6 284.75 353.6 156.25 376.25 156.25" fill="none" stroke="#10426b" stroke-miterlimit="10" stroke-width="1.5"/><polyline points="141.33 234.75 141.33 106.25 188.83 106.25" fill="none" stroke="#10426b" stroke-miterlimit="10" stroke-width="1.5"/><polyline points="155.66 263.25 155.66 134.75 184.62 134.75" fill="none" stroke="#10426b" stroke-miterlimit="10" stroke-width="1.5"/><polyline points="172.83 284.75 172.83 156.25 195.48 156.25" fill="none" stroke="#10426b" stroke-miterlimit="10" stroke-width="1.5"/><polygon points="181.25 82.2 194.74 78.59 181.25 74.97 181.25 82.2" fill="#10426b"/><polygon points="432.48 47.92 436.1 61.42 439.72 47.92 432.48 47.92" fill="#10426b"/><polygon points="610.56 47.92 614.17 61.42 617.79 47.92 610.56 47.92" fill="#10426b"/><polygon points="181.25 109.87 194.74 106.25 181.25 102.63 181.25 109.87" fill="#10426b"/><polygon points="181.25 138.37 194.74 134.75 181.25 131.13 181.25 138.37" fill="#10426b"/><polygon points="187.99 152.63 174.5 156.25 187.99 159.87 187.99 152.63" fill="#10426b"/><polygon points="362.75 109.87 376.25 106.25 362.75 102.63 362.75 109.87" fill="#10426b"/><polygon points="362.75 138.37 376.25 134.75 362.75 131.13 362.75 138.37" fill="#10426b"/><polygon points="369.5 152.63 356.01 156.25 369.5 159.87 369.5 152.63" fill="#10426b"/><polygon points="542.75 109.87 556.25 106.25 542.75 102.63 542.75 109.87" fill="#10426b"/><polygon points="542.75 138.37 556.25 134.75 542.75 131.13 542.75 138.37" fill="#10426b"/><polygon points="553.96 152.63 540.46 156.25 553.96 159.87 553.96 152.63" fill="#10426b"/><g id="ef487632-02df-4dbd-b19d-9c0ed266b550" data-name="Junction Point (Filled)"><path d="M144.21,234.75h0a2.88,2.88,0,1,0-2.88,2.81,2.84,2.84,0,0,0,2.88-2.81Z" fill="#10426b" stroke="#10426b" stroke-miterlimit="14.3"/><path d="M158.53,263.25h0a2.88,2.88,0,1,0-2.87,2.81,2.84,2.84,0,0,0,2.87-2.81Z" fill="#10426b" stroke="#10426b" stroke-miterlimit="14.3"/><path d="M175.71,284.75h0a2.88,2.88,0,1,0-2.88,2.81,2.84,2.84,0,0,0,2.88-2.81Z" fill="#10426b" stroke="#10426b" stroke-miterlimit="14.3"/><path d="M325,234.75h0a2.88,2.88,0,1,0-2.88,2.81,2.85,2.85,0,0,0,2.88-2.81Z" fill="#10426b" stroke="#10426b" stroke-miterlimit="14.3"/><path d="M512.92,234.75h0a2.88,2.88,0,1,0-2.87,2.81,2.84,2.84,0,0,0,2.87-2.81Z" fill="#10426b" stroke="#10426b" stroke-miterlimit="14.3"/><path d="M339.3,263.25h0a2.88,2.88,0,1,0-2.87,2.81,2.84,2.84,0,0,0,2.87-2.81Z" fill="#10426b" stroke="#10426b" stroke-miterlimit="14.3"/><path d="M527.15,263.25h0a2.88,2.88,0,1,0-2.87,2.81,2.84,2.84,0,0,0,2.87-2.81Z" fill="#10426b" stroke="#10426b" stroke-miterlimit="14.3"/><path d="M356.48,284.75h0a2.88,2.88,0,1,0-2.88,2.81,2.85,2.85,0,0,0,2.88-2.81Z" fill="#10426b" stroke="#10426b" stroke-miterlimit="14.3"/><path d="M543.35,284.75h0a2.88,2.88,0,1,0-2.87,2.81,2.84,2.84,0,0,0,2.87-2.81Z" fill="#10426b" stroke="#10426b" stroke-miterlimit="14.3"/></g><line x1="199.44" y1="69.75" x2="218.6" y2="69.75" fill="none" stroke="#10426b" stroke-miterlimit="10"/><line x1="84.44" y1="69.75" x2="110.85" y2="69.75" fill="none" stroke="#10426b" stroke-miterlimit="10"/><line x1="84.44" y1="33.75" x2="110.85" y2="33.75" fill="none" stroke="#10426b" stroke-miterlimit="10"/><line x1="84.44" y1="14" x2="110.85" y2="14" fill="none" stroke="#10426b" stroke-miterlimit="10"/><line x1="421.44" y1="66.5" x2="440.6" y2="66.5" fill="none" stroke="#10426b" stroke-miterlimit="10"/><line x1="601.34" y1="66.5" x2="620.5" y2="66.5" fill="none" stroke="#10426b" stroke-miterlimit="10"/></svg>