<svg id="bde3c5fa-1165-4106-8418-90963582d237" data-name="Layer 1" xmlns="http://www.w3.org/2000/svg" width="4.82in" height="7.22in" viewBox="0 0 347.18 520.06"><rect x="230.58" y="203.06" width="115.85" height="114.67" fill="#fbc694" stroke="#10426b" stroke-linecap="round" stroke-linejoin="round" stroke-width="1.5"/><path d="M302.31,251.4c0,1.34,1,1.86,2.22,1.86.78,0,2-.23,2-1.26s-1.51-1.26-3-1.66-3-1-3-2.86c0-2,1.94-3,3.75-3,2.1,0,4,.92,4,3.24h-2.14c-.07-1.21-.93-1.52-2-1.52-.71,0-1.52.3-1.52,1.14s.48.87,3,1.52c.74.18,3,.65,3,2.93,0,1.85-1.45,3.23-4.18,3.23-2.23,0-4.31-1.1-4.28-3.58Z" fill="#10426b"/><path d="M309.94,244.68h4.53c2.5,0,3.47,1.59,3.47,3.23s-1,3.22-3.47,3.22h-2.33v3.61h-2.2Zm2.2,4.73h1.72c1,0,1.94-.22,1.94-1.5s-.91-1.51-1.94-1.51h-1.72Z" fill="#10426b"/><path d="M319.32,244.68h2.21v10.06h-2.21Z" fill="#10426b"/><path d="M283.8,268.29c0,1.34,1,1.86,2.22,1.86.78,0,2-.22,2-1.25s-1.51-1.27-3-1.66-3-1-3-2.86c0-2.06,1.94-3,3.75-3,2.1,0,4,.91,4,3.24h-2.14c-.07-1.22-.93-1.53-2-1.53-.71,0-1.52.3-1.52,1.15s.48.87,3,1.52c.74.18,3,.64,3,2.93,0,1.84-1.45,3.22-4.18,3.22-2.23,0-4.31-1.1-4.28-3.58Z" fill="#10426b"/><path d="M298,271.63h-1.9v-1h0a2.62,2.62,0,0,1-2.23,1.21c-2.12,0-2.66-1.2-2.66-3v-4.48h2v4.11c0,1.2.35,1.79,1.28,1.79,1.09,0,1.55-.6,1.55-2.08v-3.82h2Z" fill="#10426b"/><path d="M299.56,261.58h2v3.66h0a2.7,2.7,0,0,1,2.3-1.09c1.45,0,3,1.17,3,3.83s-1.56,3.85-3,3.85a2.52,2.52,0,0,1-2.39-1.13h0v.93h-1.9Zm3.63,4.08c-1.18,0-1.7,1.11-1.7,2.34s.52,2.32,1.7,2.32,1.7-1.11,1.7-2.32S304.37,265.66,303.19,265.66Z" fill="#10426b"/><path d="M308.16,264.35h1.9v1h0a2.6,2.6,0,0,1,2.22-1.21c2.13,0,2.66,1.2,2.66,3v4.48h-2v-4.11c0-1.2-.35-1.79-1.28-1.79s-1.55.61-1.55,2.09v3.81h-2Z" fill="#10426b"/><path d="M320,264.15a3.84,3.84,0,1,1-3.76,3.85A3.58,3.58,0,0,1,320,264.15Zm0,6.17c1.37,0,1.77-1.17,1.77-2.32s-.4-2.34-1.77-2.34-1.76,1.17-1.76,2.34S318.68,270.32,320,270.32Z" fill="#10426b"/><path d="M330.29,270.7h0a2.41,2.41,0,0,1-2.21,1.13c-2.19,0-3.26-1.89-3.26-3.9s1.08-3.78,3.22-3.78a2.5,2.5,0,0,1,2.15,1.09h0v-3.66h2v10.05h-1.9Zm-1.75-5c-1.3,0-1.75,1.13-1.75,2.32s.52,2.34,1.75,2.34,1.72-1.15,1.72-2.35S329.84,265.66,328.54,265.66Z" fill="#10426b"/><path d="M335.34,268.48c.06,1.26.68,1.84,1.79,1.84a1.63,1.63,0,0,0,1.57-.94h1.76a3.27,3.27,0,0,1-3.4,2.45,3.56,3.56,0,0,1-3.72-3.83,3.66,3.66,0,0,1,3.72-3.85c2.47,0,3.67,2.09,3.53,4.33Zm3.25-1.27c-.18-1-.62-1.55-1.59-1.55a1.58,1.58,0,0,0-1.66,1.55Z" fill="#10426b"/><path d="M237.74,268.42c0,1.34,1,1.86,2.22,1.86.78,0,2-.22,2-1.25s-1.51-1.27-3-1.66-3-1-3-2.86c0-2.06,1.94-3.05,3.76-3.05,2.09,0,4,.92,4,3.24h-2.14c-.07-1.21-.93-1.52-2-1.52-.71,0-1.52.3-1.52,1.14s.48.88,3,1.52c.73.19,3,.65,3,2.93,0,1.85-1.45,3.23-4.18,3.23-2.22,0-4.31-1.1-4.28-3.58Z" fill="#10426b"/><path d="M252.06,265.08a2.16,2.16,0,0,0-2.19-1.76c-2,0-2.73,1.69-2.73,3.45s.75,3.37,2.73,3.37a2.27,2.27,0,0,0,2.28-2.25h2.14a4.25,4.25,0,0,1-4.42,4.11c-3.11,0-4.94-2.32-4.94-5.23s1.83-5.31,4.94-5.31a4.08,4.08,0,0,1,4.33,3.62Z" fill="#10426b"/><path d="M255.79,261.7H258v8.2h4.9v1.86h-7.11Z" fill="#10426b"/><path d="M264.14,261.7h2.21v4.17l3.92-4.17H273l-3.93,4,4.31,6.08h-2.77l-3-4.52-1.26,1.28v3.24h-2.21Z" fill="#10426b"/><path d="M279.21,218.21c0,1.34,1.05,1.86,2.23,1.86.77,0,1.95-.22,1.95-1.25s-1.5-1.27-3-1.66-3-1-3-2.86c0-2.06,1.95-3,3.76-3,2.1,0,4,.91,4,3.24h-2.14c-.07-1.22-.92-1.52-2-1.52-.7,0-1.52.29-1.52,1.14s.48.87,3,1.52c.73.18,3,.64,3,2.93,0,1.84-1.45,3.22-4.18,3.22-2.22,0-4.3-1.1-4.27-3.58Z" fill="#10426b"/><path d="M286.84,211.5h4.33c2.61,0,4.56,1.63,4.56,5,0,2.91-1.49,5.08-4.56,5.08h-4.33Zm2.21,8.19h2c1.28,0,2.5-.78,2.5-3,0-2-.7-3.32-2.89-3.32h-1.58Z" fill="#10426b"/><path d="M297.27,211.5h2.21v10.05h-2.21Z" fill="#10426b"/><path d="M275.73,308.41c0,1.34,1,1.86,2.22,1.86.77,0,2-.23,2-1.25s-1.51-1.27-3-1.67-3-1-3-2.86c0-2.05,1.94-3,3.75-3,2.1,0,4,.92,4,3.24h-2.14c-.07-1.21-.93-1.52-2-1.52-.7,0-1.52.3-1.52,1.14s.48.87,3,1.52c.73.19,3,.65,3,2.93,0,1.85-1.45,3.23-4.17,3.23-2.23,0-4.31-1.1-4.28-3.58Z" fill="#10426b"/><path d="M283.35,301.69h4.34c2.6,0,4.56,1.64,4.56,5,0,2.92-1.5,5.09-4.56,5.09h-4.34Zm2.21,8.2h2c1.28,0,2.51-.79,2.51-3,0-2-.71-3.32-2.9-3.32h-1.58Z" fill="#10426b"/><path d="M298.28,301.45c3.11,0,4.94,2.33,4.94,5.31s-1.83,5.23-4.94,5.23-4.94-2.33-4.94-5.23S295.17,301.45,298.28,301.45Zm0,8.68c2,0,2.73-1.69,2.73-3.37s-.74-3.45-2.73-3.45-2.73,1.69-2.73,3.45S296.3,310.13,298.28,310.13Z" fill="#10426b"/><rect x="230.58" y="404.64" width="115.85" height="114.67" fill="#fbc694" stroke="#10426b" stroke-linecap="round" stroke-linejoin="round" stroke-width="1.5"/><path d="M302.31,454.71c0,1.34,1,1.86,2.22,1.86.78,0,2-.23,2-1.25s-1.51-1.27-3-1.67-3-1-3-2.85c0-2.06,1.94-3.05,3.75-3.05,2.1,0,4,.92,4,3.24h-2.14c-.07-1.21-.93-1.52-2-1.52-.71,0-1.52.3-1.52,1.14s.48.88,3,1.52c.74.19,3,.65,3,2.93,0,1.85-1.45,3.23-4.18,3.23-2.23,0-4.31-1.1-4.28-3.58Z" fill="#10426b"/><path d="M309.94,448h4.53c2.5,0,3.47,1.59,3.47,3.23s-1,3.22-3.47,3.22h-2.33v3.61h-2.2Zm2.2,4.74h1.72c1,0,1.94-.23,1.94-1.51s-.91-1.51-1.94-1.51h-1.72Z" fill="#10426b"/><path d="M319.32,448h2.21v10.06h-2.21Z" fill="#10426b"/><path d="M283.8,471.61c0,1.33,1,1.85,2.22,1.85.78,0,2-.22,2-1.25s-1.51-1.27-3-1.66-3-1-3-2.86c0-2.06,1.94-3,3.75-3,2.1,0,4,.91,4,3.24h-2.14c-.07-1.21-.93-1.52-2-1.52-.71,0-1.52.29-1.52,1.14s.48.87,3,1.52c.74.18,3,.65,3,2.93,0,1.84-1.45,3.22-4.18,3.22-2.23,0-4.31-1.1-4.28-3.57Z" fill="#10426b"/><path d="M298,474.94h-1.9v-1h0a2.59,2.59,0,0,1-2.23,1.21c-2.12,0-2.66-1.2-2.66-3v-4.48h2v4.11c0,1.2.35,1.79,1.28,1.79,1.09,0,1.55-.6,1.55-2.08v-3.82h2Z" fill="#10426b"/><path d="M299.56,464.89h2v3.66h0a2.7,2.7,0,0,1,2.3-1.09c1.45,0,3,1.17,3,3.84s-1.56,3.84-3,3.84a2.5,2.5,0,0,1-2.39-1.13h0v.93h-1.9Zm3.63,4.08c-1.18,0-1.7,1.11-1.7,2.34s.52,2.32,1.7,2.32,1.7-1.11,1.7-2.32S304.37,469,303.19,469Z" fill="#10426b"/><path d="M308.16,467.66h1.9v1h0a2.59,2.59,0,0,1,2.22-1.22c2.13,0,2.66,1.2,2.66,3v4.48h-2v-4.11c0-1.2-.35-1.79-1.28-1.79s-1.55.61-1.55,2.09v3.81h-2Z" fill="#10426b"/><path d="M320,467.46a3.84,3.84,0,1,1-3.76,3.85A3.58,3.58,0,0,1,320,467.46Zm0,6.17c1.37,0,1.77-1.17,1.77-2.32S321.4,469,320,469s-1.76,1.17-1.76,2.34S318.68,473.63,320,473.63Z" fill="#10426b"/><path d="M330.29,474h0a2.41,2.41,0,0,1-2.21,1.13c-2.19,0-3.26-1.89-3.26-3.9s1.08-3.78,3.22-3.78a2.5,2.5,0,0,1,2.15,1.09h0v-3.66h2v10.05h-1.9Zm-1.75-5c-1.3,0-1.75,1.13-1.75,2.33s.52,2.33,1.75,2.33,1.72-1.15,1.72-2.35S329.84,469,328.54,469Z" fill="#10426b"/><path d="M335.34,471.79c.06,1.27.68,1.84,1.79,1.84a1.63,1.63,0,0,0,1.57-.94h1.76a3.27,3.27,0,0,1-3.4,2.45,3.56,3.56,0,0,1-3.72-3.83,3.66,3.66,0,0,1,3.72-3.85c2.47,0,3.67,2.09,3.53,4.33Zm3.25-1.27c-.18-1-.62-1.55-1.59-1.55a1.58,1.58,0,0,0-1.66,1.55Z" fill="#10426b"/><path d="M237.74,477.86c0,1.34,1,1.86,2.22,1.86.78,0,2-.23,2-1.25s-1.51-1.27-3-1.67-3-1-3-2.85c0-2.06,1.94-3.05,3.76-3.05,2.09,0,4,.92,4,3.24h-2.14c-.07-1.21-.93-1.52-2-1.52-.71,0-1.52.3-1.52,1.14s.48.88,3,1.52c.73.19,3,.65,3,2.93,0,1.85-1.45,3.23-4.18,3.23-2.22,0-4.31-1.1-4.28-3.58Z" fill="#10426b"/><path d="M252.06,474.52a2.16,2.16,0,0,0-2.19-1.76c-2,0-2.73,1.69-2.73,3.45s.75,3.37,2.73,3.37a2.27,2.27,0,0,0,2.28-2.25h2.14a4.25,4.25,0,0,1-4.42,4.11c-3.11,0-4.94-2.32-4.94-5.23s1.83-5.31,4.94-5.31a4.08,4.08,0,0,1,4.33,3.62Z" fill="#10426b"/><path d="M255.79,471.14H258v8.2h4.9v1.86h-7.11Z" fill="#10426b"/><path d="M264.14,471.14h2.21v4.17l3.92-4.17H273l-3.93,4,4.31,6.08h-2.77l-3-4.52L266.35,478v3.24h-2.21Z" fill="#10426b"/><path d="M279.21,416.34c0,1.34,1.05,1.86,2.23,1.86.77,0,1.95-.23,1.95-1.25s-1.5-1.27-3-1.67-3-1-3-2.86c0-2.05,1.95-3,3.76-3,2.1,0,4,.92,4,3.24h-2.14c-.07-1.21-.92-1.52-2-1.52-.7,0-1.52.3-1.52,1.14s.48.87,3,1.52c.73.19,3,.65,3,2.93,0,1.85-1.45,3.23-4.18,3.23-2.22,0-4.3-1.1-4.27-3.58Z" fill="#10426b"/><path d="M286.84,409.62h4.33c2.61,0,4.56,1.64,4.56,5,0,2.92-1.49,5.09-4.56,5.09h-4.33Zm2.21,8.2h2c1.28,0,2.5-.79,2.5-3,0-2-.7-3.32-2.89-3.32h-1.58Z" fill="#10426b"/><path d="M297.27,409.62h2.21v10.06h-2.21Z" fill="#10426b"/><path d="M238.28,510c0,1.34,1,1.86,2.22,1.86.77,0,2-.23,2-1.25s-1.51-1.27-3-1.67-3-1-3-2.85c0-2.06,1.94-3.05,3.75-3.05,2.1,0,4,.92,4,3.24h-2.14c-.07-1.21-.93-1.52-2-1.52-.7,0-1.51.3-1.51,1.14s.47.87,3,1.52c.73.19,3,.65,3,2.93,0,1.85-1.44,3.23-4.17,3.23-2.23,0-4.31-1.1-4.28-3.58Z" fill="#10426b"/><path d="M245.9,503.27h4.34c2.6,0,4.56,1.64,4.56,5,0,2.92-1.5,5.09-4.56,5.09H245.9Zm2.21,8.2h2c1.28,0,2.51-.79,2.51-3,0-2-.71-3.32-2.9-3.32h-1.58Z" fill="#10426b"/><path d="M260.83,503c3.11,0,4.94,2.33,4.94,5.31s-1.83,5.23-4.94,5.23-4.94-2.33-4.94-5.23S257.72,503,260.83,503Zm0,8.68c2,0,2.73-1.69,2.73-3.37s-.74-3.45-2.73-3.45-2.73,1.69-2.73,3.45S258.85,511.71,260.83,511.71Z" fill="#10426b"/><rect x="0.75" y="0.75" width="115.85" height="144.25" fill="#b7e6ef" stroke="#10426b" stroke-linecap="round" stroke-linejoin="round" stroke-width="1.5"/><path d="M25.5,21.9c0,1.34,1,1.86,2.22,1.86.78,0,2-.22,2-1.25s-1.51-1.27-3-1.66-3-1-3-2.86c0-2.06,1.94-3,3.75-3,2.1,0,4,.91,4,3.24H29.34c-.07-1.22-.93-1.53-2-1.53-.71,0-1.52.3-1.52,1.15s.47.87,3,1.52c.73.18,3,.64,3,2.93,0,1.84-1.45,3.22-4.18,3.22-2.23,0-4.31-1.1-4.28-3.58Z" fill="#10426b"/><path d="M33.13,15.19h4.53c2.5,0,3.47,1.59,3.47,3.22s-1,3.23-3.47,3.23H35.33v3.6h-2.2Zm2.2,4.73h1.72c1,0,1.94-.23,1.94-1.51s-.91-1.51-1.94-1.51H35.33Z" fill="#10426b"/><path d="M42.51,15.19h2.21v10H42.51Z" fill="#10426b"/><path d="M18.92,32.08H22L24.38,39h0l2.22-6.92h3.11V42.14H27.67V35h0l-2.46,7.13h-1.7L21,35.08h0v7.06H18.92Z" fill="#10426b"/><path d="M31.39,37.09c.11-1.87,1.78-2.43,3.42-2.43,1.45,0,3.19.32,3.19,2.07v3.79a3.81,3.81,0,0,0,.25,1.62h-2a2.88,2.88,0,0,1-.14-.71,3.37,3.37,0,0,1-2.45.9c-1.38,0-2.48-.69-2.48-2.18,0-1.65,1.24-2,2.48-2.21S36,37.8,36,37s-.59-1-1.29-1-1.25.31-1.32,1.09ZM36,38.57a4,4,0,0,1-1.66.43c-.62.12-1.18.33-1.18,1.07s.58.93,1.22.93A1.48,1.48,0,0,0,36,39.32Z" fill="#10426b"/><path d="M41.6,33.73h-2V32.08h2Zm-2,1.12h2v7.29h-2Z" fill="#10426b"/><path d="M43.18,34.85h1.9v1h0a2.59,2.59,0,0,1,2.22-1.21c2.13,0,2.66,1.19,2.66,3v4.48H48V38c0-1.19-.35-1.79-1.28-1.79s-1.54.61-1.54,2.09v3.82h-2Z" fill="#10426b"/><path d="M100.72,27a2.17,2.17,0,0,0-2.19-1.76c-2,0-2.73,1.69-2.73,3.45S96.54,32,98.53,32a2.27,2.27,0,0,0,2.28-2.26h2.13a4.24,4.24,0,0,1-4.41,4.12c-3.11,0-4.94-2.33-4.94-5.23s1.83-5.31,4.94-5.31A4.08,4.08,0,0,1,102.86,27Z" fill="#10426b"/><path d="M106,30.32c0,1.34,1,1.86,2.22,1.86.77,0,1.95-.23,1.95-1.26s-1.5-1.26-3-1.66-3-1-3-2.86c0-2,1.94-3,3.75-3,2.1,0,4,.92,4,3.24H109.8c-.07-1.21-.93-1.52-2-1.52-.7,0-1.52.29-1.52,1.14s.48.87,3,1.52c.73.18,3,.65,3,2.93,0,1.85-1.45,3.23-4.18,3.23-2.22,0-4.3-1.1-4.27-3.58Z" fill="#10426b"/><path d="M76.94,60.75c0,1.33,1,1.85,2.23,1.85.77,0,2-.22,2-1.25s-1.5-1.27-3-1.66-3-1-3-2.86c0-2.06,1.94-3,3.76-3,2.09,0,4,.91,4,3.24H80.78c-.07-1.21-.93-1.52-2-1.52-.7,0-1.52.29-1.52,1.14s.48.87,3,1.52c.73.18,3,.65,3,2.93,0,1.84-1.45,3.22-4.18,3.22-2.22,0-4.3-1.1-4.28-3.57Z" fill="#10426b"/><path d="M91.27,57.41a2.17,2.17,0,0,0-2.2-1.76c-2,0-2.73,1.69-2.73,3.45s.75,3.36,2.73,3.36a2.27,2.27,0,0,0,2.28-2.25h2.14a4.25,4.25,0,0,1-4.42,4.11c-3.11,0-4.94-2.32-4.94-5.22s1.83-5.31,4.94-5.31a4.06,4.06,0,0,1,4.33,3.62Z" fill="#10426b"/><path d="M95,54h2.21v8.19h4.89v1.86H95Z" fill="#10426b"/><path d="M103.34,54h2.21V58.2L109.47,54h2.76l-3.92,4,4.3,6.08h-2.77l-3-4.52-1.26,1.28v3.24h-2.21Z" fill="#10426b"/><path d="M76.59,82.88H79.7l2.35,6.91h0l2.22-6.91h3.11V92.93H85.34V85.81h0l-2.46,7.12h-1.7l-2.46-7.05h0v7.05H76.59Z" fill="#10426b"/><path d="M93.85,82.64C97,82.64,98.79,85,98.79,88S97,93.17,93.85,93.17,88.92,90.85,88.92,88,90.75,82.64,93.85,82.64Zm0,8.67c2,0,2.73-1.69,2.73-3.36s-.74-3.45-2.73-3.45S91.13,86.19,91.13,88,91.87,91.31,93.85,91.31Z" fill="#10426b"/><path d="M101.81,89.6c0,1.33,1,1.85,2.22,1.85.77,0,2-.22,2-1.25s-1.5-1.27-3-1.66-3-1-3-2.86c0-2.06,2-3,3.76-3,2.1,0,4,.91,4,3.24h-2.13c-.07-1.21-.93-1.52-2-1.52-.7,0-1.52.29-1.52,1.14s.48.87,3,1.52c.73.18,3,.65,3,2.93,0,1.84-1.45,3.22-4.18,3.22-2.22,0-4.3-1.1-4.27-3.57Z" fill="#10426b"/><path d="M109.43,82.88h2.21V92.93h-2.21Z" fill="#10426b"/><path d="M76.59,110.52H79.7l2.35,6.92h0l2.22-6.92h3.11v10.06H85.34v-7.13h0l-2.46,7.13h-1.7l-2.46-7.06h0v7.06H76.59Z" fill="#10426b"/><path d="M89.35,110.52h2.21v10.06H89.35Z" fill="#10426b"/><path d="M95,117.24c0,1.34,1,1.86,2.22,1.86.78,0,2-.22,2-1.25s-1.51-1.27-3-1.66-3-1-3-2.86c0-2.06,1.94-3,3.75-3,2.1,0,4,.92,4,3.24H98.85c-.07-1.21-.93-1.52-2-1.52-.71,0-1.52.3-1.52,1.14s.48.88,3,1.52c.74.19,3,.65,3,2.93,0,1.85-1.45,3.23-4.18,3.23-2.23,0-4.31-1.1-4.28-3.58Z" fill="#10426b"/><path d="M107.14,110.28c3.11,0,4.94,2.33,4.94,5.31s-1.83,5.23-4.94,5.23-4.94-2.33-4.94-5.23S104,110.28,107.14,110.28Zm0,8.68c2,0,2.73-1.69,2.73-3.37s-.75-3.45-2.73-3.45-2.73,1.69-2.73,3.45S105.15,119,107.14,119Z" fill="#10426b"/><g id="a48cd20e-f0a4-4ab9-8ec8-99a6ee60707f" data-name="Junction Point (Filled)"><path d="M205.22,29.6h0a2.88,2.88,0,1,0-2.88,2.81,2.84,2.84,0,0,0,2.88-2.81Z" fill="#10426b" stroke="#10426b" stroke-miterlimit="14.3"/><path d="M205.22,231.55h0a2.88,2.88,0,1,0-2.88,2.81,2.84,2.84,0,0,0,2.88-2.81Z" fill="#10426b" stroke="#10426b" stroke-miterlimit="14.3"/><path d="M205.22,433.45h0a2.88,2.88,0,1,0-2.88,2.82,2.84,2.84,0,0,0,2.88-2.82Z" fill="#10426b" stroke="#10426b" stroke-miterlimit="14.3"/><path d="M176.48,58.41h0a2.88,2.88,0,1,0-2.87,2.81,2.84,2.84,0,0,0,2.87-2.81Z" fill="#10426b" stroke="#10426b" stroke-miterlimit="14.3"/><path d="M176.48,267.74h0a2.88,2.88,0,1,0-2.87,2.81,2.85,2.85,0,0,0,2.87-2.81Z" fill="#10426b" stroke="#10426b" stroke-miterlimit="14.3"/><path d="M176.48,476.77h0a2.88,2.88,0,1,0-2.87,2.81,2.84,2.84,0,0,0,2.87-2.81Z" fill="#10426b" stroke="#10426b" stroke-miterlimit="14.3"/></g><rect x="230.58" y="15.54" width="115.85" height="114.67" fill="#fbc694" stroke="#10426b" stroke-linecap="round" stroke-linejoin="round" stroke-width="1.5"/><path d="M302.31,33.37c0,1.34,1,1.86,2.22,1.86.78,0,2-.22,2-1.25s-1.51-1.27-3-1.66-3-1-3-2.86c0-2.06,1.94-3,3.75-3,2.1,0,4,.91,4,3.23h-2.14c-.07-1.21-.93-1.52-2-1.52-.71,0-1.52.3-1.52,1.14s.48.88,3,1.53c.74.18,3,.64,3,2.92,0,1.85-1.45,3.23-4.18,3.23-2.23,0-4.31-1.1-4.28-3.58Z" fill="#10426b"/><path d="M309.94,26.66h4.53c2.5,0,3.47,1.59,3.47,3.22a3.11,3.11,0,0,1-3.47,3.23h-2.33v3.6h-2.2Zm2.2,4.73h1.72c1,0,1.94-.23,1.94-1.51s-.91-1.51-1.94-1.51h-1.72Z" fill="#10426b"/><path d="M319.32,26.66h2.21V36.71h-2.21Z" fill="#10426b"/><path d="M283.8,50.27c0,1.33,1,1.86,2.22,1.86.78,0,2-.23,2-1.26s-1.51-1.27-3-1.66-3-1-3-2.86c0-2.05,1.94-3,3.75-3,2.1,0,4,.91,4,3.24h-2.14c-.07-1.21-.93-1.52-2-1.52-.71,0-1.52.29-1.52,1.14s.48.87,3,1.52c.74.18,3,.65,3,2.93,0,1.84-1.45,3.22-4.18,3.22-2.23,0-4.31-1.09-4.28-3.57Z" fill="#10426b"/><path d="M298,53.6h-1.9v-1h0a2.59,2.59,0,0,1-2.23,1.21c-2.12,0-2.66-1.2-2.66-3V46.32h2v4.12c0,1.19.35,1.78,1.28,1.78,1.09,0,1.55-.6,1.55-2.08V46.32h2Z" fill="#10426b"/><path d="M299.56,43.55h2v3.66h0a2.69,2.69,0,0,1,2.3-1.08c1.45,0,3,1.17,3,3.83s-1.56,3.84-3,3.84a2.51,2.51,0,0,1-2.39-1.12h0v.92h-1.9Zm3.63,4.08c-1.18,0-1.7,1.12-1.7,2.34s.52,2.33,1.7,2.33,1.7-1.12,1.7-2.33S304.37,47.63,303.19,47.63Z" fill="#10426b"/><path d="M308.16,46.32h1.9v1h0a2.58,2.58,0,0,1,2.22-1.21c2.13,0,2.66,1.19,2.66,3V53.6h-2V49.49c0-1.19-.35-1.79-1.28-1.79s-1.55.61-1.55,2.09V53.6h-2Z" fill="#10426b"/><path d="M320,46.13A3.57,3.57,0,0,1,323.8,50a3.77,3.77,0,1,1-7.53,0A3.57,3.57,0,0,1,320,46.13Zm0,6.17c1.37,0,1.77-1.17,1.77-2.33s-.4-2.34-1.77-2.34-1.76,1.17-1.76,2.34S318.68,52.3,320,52.3Z" fill="#10426b"/><path d="M330.29,52.68h0a2.42,2.42,0,0,1-2.21,1.12c-2.19,0-3.26-1.89-3.26-3.9s1.08-3.77,3.22-3.77a2.49,2.49,0,0,1,2.15,1.08h0V43.55h2V53.6h-1.9Zm-1.75-5c-1.3,0-1.75,1.13-1.75,2.33s.52,2.34,1.75,2.34,1.72-1.16,1.72-2.36S329.84,47.63,328.54,47.63Z" fill="#10426b"/><path d="M335.34,50.45c.06,1.27.68,1.85,1.79,1.85a1.64,1.64,0,0,0,1.57-.95h1.76a3.27,3.27,0,0,1-3.4,2.45A3.56,3.56,0,0,1,333.34,50a3.65,3.65,0,0,1,3.72-3.84c2.47,0,3.67,2.08,3.53,4.32Zm3.25-1.27c-.18-1-.62-1.55-1.59-1.55a1.58,1.58,0,0,0-1.66,1.55Z" fill="#10426b"/><path d="M242.93,30a2.17,2.17,0,0,0-2.19-1.76c-2,0-2.73,1.69-2.73,3.45s.74,3.37,2.73,3.37A2.27,2.27,0,0,0,243,32.84h2.13A4.24,4.24,0,0,1,240.74,37c-3.11,0-4.94-2.32-4.94-5.23s1.83-5.3,4.94-5.3A4.07,4.07,0,0,1,245.07,30Z" fill="#10426b"/><path d="M248.17,33.37c0,1.34,1,1.86,2.22,1.86.77,0,2-.22,2-1.25s-1.5-1.27-3-1.66-3-1-3-2.86c0-2.06,1.94-3,3.75-3,2.1,0,4,.91,4,3.23H252c-.07-1.21-.93-1.52-2-1.52-.7,0-1.52.3-1.52,1.14s.48.88,3,1.53c.73.18,3,.64,3,2.92,0,1.85-1.45,3.23-4.18,3.23-2.22,0-4.3-1.1-4.27-3.58Z" fill="#10426b"/><path d="M237.74,61.16c0,1.34,1,1.86,2.22,1.86.78,0,2-.22,2-1.25s-1.51-1.27-3-1.66-3-1-3-2.86c0-2.06,1.94-3,3.76-3,2.09,0,4,.92,4,3.24h-2.14c-.07-1.21-.93-1.52-2-1.52-.71,0-1.52.3-1.52,1.14s.48.88,3,1.52c.73.19,3,.65,3,2.93,0,1.85-1.45,3.23-4.18,3.23-2.22,0-4.31-1.1-4.28-3.58Z" fill="#10426b"/><path d="M252.06,57.82a2.16,2.16,0,0,0-2.19-1.76c-2,0-2.73,1.69-2.73,3.45s.75,3.37,2.73,3.37a2.27,2.27,0,0,0,2.28-2.25h2.14a4.25,4.25,0,0,1-4.42,4.11c-3.11,0-4.94-2.33-4.94-5.23s1.83-5.31,4.94-5.31a4.08,4.08,0,0,1,4.33,3.62Z" fill="#10426b"/><path d="M255.79,54.44H258v8.2h4.9V64.5h-7.11Z" fill="#10426b"/><path d="M264.14,54.44h2.21v4.17l3.92-4.17H273l-3.93,4,4.31,6.09h-2.77l-3-4.52-1.26,1.28V64.5h-2.21Z" fill="#10426b"/><path d="M237.74,88.66c0,1.34,1,1.86,2.22,1.86.78,0,2-.22,2-1.25s-1.51-1.27-3-1.66-3-1-3-2.86c0-2.06,1.94-3,3.76-3,2.09,0,4,.92,4,3.24h-2.14c-.07-1.21-.93-1.52-2-1.52-.71,0-1.52.3-1.52,1.14s.48.88,3,1.52c.73.19,3,.65,3,2.93,0,1.85-1.45,3.23-4.18,3.23-2.22,0-4.31-1.1-4.28-3.58Z" fill="#10426b"/><path d="M245.37,81.94h4.33c2.6,0,4.56,1.64,4.56,5,0,2.92-1.49,5.09-4.56,5.09h-4.33Zm2.21,8.2h2c1.28,0,2.5-.79,2.5-3,0-2-.7-3.33-2.9-3.33h-1.57Z" fill="#10426b"/><path d="M255.79,81.94H258V92h-2.21Z" fill="#10426b"/><path d="M275.73,120.89c0,1.34,1,1.86,2.22,1.86.77,0,2-.23,2-1.26s-1.51-1.26-3-1.66-3-1-3-2.86c0-2,1.94-3,3.75-3,2.1,0,4,.92,4,3.24h-2.14c-.07-1.21-.93-1.52-2-1.52-.7,0-1.52.29-1.52,1.14s.48.87,3,1.52c.73.18,3,.65,3,2.93,0,1.85-1.45,3.23-4.17,3.23-2.23,0-4.31-1.1-4.28-3.58Z" fill="#10426b"/><path d="M283.35,114.17h4.34c2.6,0,4.56,1.63,4.56,5,0,2.92-1.5,5.09-4.56,5.09h-4.34Zm2.21,8.2h2c1.28,0,2.51-.79,2.51-3,0-2-.71-3.32-2.9-3.32h-1.58Z" fill="#10426b"/><path d="M298.28,113.93c3.11,0,4.94,2.32,4.94,5.31s-1.83,5.23-4.94,5.23-4.94-2.33-4.94-5.23S295.17,113.93,298.28,113.93Zm0,8.68c2,0,2.73-1.69,2.73-3.37s-.74-3.45-2.73-3.45-2.73,1.69-2.73,3.45S296.3,122.61,298.28,122.61Z" fill="#10426b"/><line x1="116.6" y1="29.56" x2="224.98" y2="29.56" fill="none" stroke="#10426b" stroke-miterlimit="10" stroke-width="1.5"/><line x1="116.6" y1="58.41" x2="224.98" y2="58.41" fill="none" stroke="#10426b" stroke-miterlimit="10" stroke-width="1.5"/><line x1="116.6" y1="87.3" x2="224.98" y2="87.3" fill="none" stroke="#10426b" stroke-miterlimit="10" stroke-width="1.5"/><line x1="202.3" y1="231.51" x2="224.98" y2="231.51" fill="none" stroke="#10426b" stroke-miterlimit="10" stroke-width="1.5"/><line x1="173.61" y1="267.74" x2="224.98" y2="267.74" fill="none" stroke="#10426b" stroke-miterlimit="10" stroke-width="1.5"/><polyline points="224.98 433.49 202.3 433.49 202.3 29.56" fill="none" stroke="#10426b" stroke-miterlimit="10" stroke-width="1.5"/><polyline points="224.98 476.73 173.61 476.73 173.61 58.41" fill="none" stroke="#10426b" stroke-miterlimit="10" stroke-width="1.5"/><polyline points="230.7 510.06 144.88 510.06 144.88 116.15 122.24 116.15" fill="none" stroke="#10426b" stroke-miterlimit="10" stroke-width="1.5"/><polygon points="217.08 33.18 230.58 29.56 217.08 25.95 217.08 33.18" fill="#10426b"/><polygon points="217.08 62.07 230.58 58.45 217.08 54.83 217.08 62.07" fill="#10426b"/><polygon points="217.08 90.92 230.58 87.3 217.08 83.68 217.08 90.92" fill="#10426b"/><polygon points="130.1 112.49 116.6 116.11 130.1 119.73 130.1 112.49" fill="#10426b"/><polygon points="217.08 235.13 230.58 231.51 217.08 227.89 217.08 235.13" fill="#10426b"/><polygon points="217.08 271.35 230.58 267.74 217.08 264.12 217.08 271.35" fill="#10426b"/><polygon points="217.08 437.11 230.58 433.49 217.08 429.88 217.08 437.11" fill="#10426b"/><polygon points="217.08 480.38 230.58 476.77 217.08 473.15 217.08 480.38" fill="#10426b"/><polygon points="158.37 506.44 144.88 510.06 158.37 513.68 158.37 506.44" fill="#10426b"/><polygon points="284.92 391.15 288.54 404.64 292.16 391.15 284.92 391.15" fill="#10426b"/><polygon points="284.92 189.82 288.54 203.32 292.16 189.82 284.92 189.82" fill="#10426b"/><line x1="288.54" y1="394.72" x2="288.54" y2="318.09" fill="none" stroke="#10426b" stroke-miterlimit="10" stroke-width="1.5"/><line x1="288.54" y1="199.31" x2="288.54" y2="130.21" fill="none" stroke="#10426b" stroke-miterlimit="10" stroke-width="1.5"/><line x1="94.54" y1="21.38" x2="112.53" y2="21.38" fill="none" stroke="#10426b" stroke-miterlimit="10"/><line x1="236.39" y1="24.63" x2="254.38" y2="24.63" fill="none" stroke="#10426b" stroke-miterlimit="10"/><path d="M242.93,230.87a2.17,2.17,0,0,0-2.19-1.76c-2,0-2.73,1.69-2.73,3.45s.74,3.37,2.73,3.37a2.27,2.27,0,0,0,2.28-2.26h2.13a4.24,4.24,0,0,1-4.41,4.12c-3.11,0-4.94-2.33-4.94-5.23s1.83-5.31,4.94-5.31a4.08,4.08,0,0,1,4.33,3.62Z" fill="#10426b"/><path d="M248.17,234.21c0,1.34,1,1.86,2.22,1.86.77,0,2-.23,2-1.26s-1.5-1.26-3-1.66-3-1-3-2.86c0-2,1.94-3,3.75-3,2.1,0,4,.92,4,3.24H252c-.07-1.21-.93-1.52-2-1.52-.7,0-1.52.3-1.52,1.14s.48.87,3,1.52c.73.18,3,.65,3,2.93,0,1.85-1.45,3.23-4.18,3.23-2.22,0-4.3-1.1-4.27-3.58Z" fill="#10426b"/><line x1="236.39" y1="225.47" x2="254.38" y2="225.47" fill="none" stroke="#10426b" stroke-miterlimit="10"/><path d="M242.93,432.85a2.17,2.17,0,0,0-2.19-1.76c-2,0-2.73,1.69-2.73,3.45s.74,3.37,2.73,3.37a2.27,2.27,0,0,0,2.28-2.25h2.13a4.24,4.24,0,0,1-4.41,4.11c-3.11,0-4.94-2.32-4.94-5.23s1.83-5.3,4.94-5.3a4.07,4.07,0,0,1,4.33,3.61Z" fill="#10426b"/><path d="M248.17,436.19c0,1.34,1,1.86,2.22,1.86.77,0,2-.22,2-1.25s-1.5-1.27-3-1.66-3-1-3-2.86c0-2.06,1.94-3,3.75-3,2.1,0,4,.91,4,3.23H252c-.07-1.21-.93-1.52-2-1.52-.7,0-1.52.3-1.52,1.14s.48.88,3,1.53c.73.18,3,.64,3,2.92,0,1.85-1.45,3.23-4.18,3.23-2.22,0-4.3-1.1-4.27-3.58Z" fill="#10426b"/><line x1="236.39" y1="427.45" x2="254.38" y2="427.45" fill="none" stroke="#10426b" stroke-miterlimit="10"/></svg>